<svg width="66" height="31" viewBox="0 0 66 31" fill="none" xmlns="http://www.w3.org/2000/svg">
<g filter="url(#filter0_d_6_4)">
<path d="M10.6647 22.5562L7.1458 8.44281L16.9866 5.98922L17.6773 8.75953L11.2477 10.3626L11.9694 13.257L17.8959 11.7793L18.5883 14.5565L12.6618 16.0341L13.3851 18.9354L19.8147 17.3323L20.5055 20.1026L10.6647 22.5562Z" fill="#1977F2"/>
<path d="M27.1155 21.337H21.9593V6.79155H27.1581C28.6212 6.79155 29.8807 7.08274 30.9365 7.66513C31.9924 8.24278 32.8044 9.07375 33.3726 10.158C33.9455 11.2423 34.232 12.5397 34.232 14.0501C34.232 15.5652 33.9455 16.8673 33.3726 17.9563C32.8044 19.0453 31.9877 19.881 30.9223 20.4634C29.8617 21.0458 28.5928 21.337 27.1155 21.337ZM25.0346 18.7021H26.9877C27.8968 18.7021 28.6615 18.5411 29.2817 18.2191C29.9067 17.8924 30.3755 17.3881 30.688 16.7063C31.0052 16.0198 31.1638 15.1344 31.1638 14.0501C31.1638 12.9753 31.0052 12.0969 30.688 11.4151C30.3755 10.7333 29.9091 10.2314 29.2888 9.90945C28.6686 9.58748 27.9039 9.42649 26.9948 9.42649H25.0346V18.7021ZM36.5101 21.337V6.79155L42.2487 6.79155C43.3472 6.79155 44.2847 6.98805 45.0612 7.38104C45.8424 7.7693 46.4367 8.32091 46.8439 9.03587C47.2558 9.7461 47.4618 10.5818 47.4618 11.543C47.4618 12.5089 47.2534 13.3398 46.8368 14.0359C46.4201 14.7272 45.8164 15.2575 45.0257 15.6268C44.2397 15.9961 43.288 16.1808 42.1706 16.1808H38.3282V13.7092H41.6734C42.2605 13.7092 42.7482 13.6287 43.1365 13.4677C43.5247 13.3067 43.8136 13.0652 44.003 12.7433C44.1971 12.4213 44.2941 12.0212 44.2941 11.543C44.2941 11.06 44.1971 10.6528 44.003 10.3214C43.8136 9.98994 43.5224 9.73899 43.1294 9.56854C42.7411 9.39335 42.2511 9.30576 41.6592 9.30576H39.5853V21.337H36.5101ZM44.3652 14.7177L47.9802 21.337H44.5853L41.0484 14.7177H44.3652Z" fill="white"/>
</g>
<defs>
<filter id="filter0_d_6_4" x="-4" y="0" width="74" height="38" filterUnits="userSpaceOnUse" color-interpolation-filters="sRGB">
<feFlood flood-opacity="0" result="BackgroundImageFix"/>
<feColorMatrix in="SourceAlpha" type="matrix" values="0 0 0 0 0 0 0 0 0 0 0 0 0 0 0 0 0 0 127 0" result="hardAlpha"/>
<feOffset dy="4"/>
<feGaussianBlur stdDeviation="2"/>
<feComposite in2="hardAlpha" operator="out"/>
<feColorMatrix type="matrix" values="0 0 0 0 0 0 0 0 0 0 0 0 0 0 0 0 0 0 0.25 0"/>
<feBlend mode="normal" in2="BackgroundImageFix" result="effect1_dropShadow_6_4"/>
<feBlend mode="normal" in="SourceGraphic" in2="effect1_dropShadow_6_4" result="shape"/>
</filter>
</defs>
</svg>
